<mxfile host="Electron" modified="2024-03-20T12:42:59.642Z" agent="Mozilla/5.0 (X11; Linux x86_64) AppleWebKit/537.36 (KHTML, like Gecko) draw.io/22.0.3 Chrome/114.0.5735.289 Electron/25.8.4 Safari/537.36" etag="SWHqkmMOZd6I-NTngqdS" version="22.0.3" type="device">
  <diagram name="Page-1" id="y00IIp2UoIGJt-cBX9Gs">
    <mxGraphModel dx="819" dy="566" grid="1" gridSize="10" guides="1" tooltips="1" connect="1" arrows="1" fold="1" page="1" pageScale="1" pageWidth="850" pageHeight="1100" math="0" shadow="0">
      <root>
        <mxCell id="0" />
        <mxCell id="1" parent="0" />
        <mxCell id="EXV0WJkCZm_DkFYK4QC3-275" value="" style="rounded=1;whiteSpace=wrap;html=1;strokeColor=#d6b656;fillColor=#fff2cc;" parent="1" vertex="1">
          <mxGeometry x="62.25" y="270" width="357.75" height="130" as="geometry" />
        </mxCell>
        <mxCell id="EXV0WJkCZm_DkFYK4QC3-274" value="" style="rounded=1;whiteSpace=wrap;html=1;strokeColor=#6c8ebf;fillColor=#dae8fc;" parent="1" vertex="1">
          <mxGeometry x="62.25" y="50" width="357.75" height="135" as="geometry" />
        </mxCell>
        <mxCell id="EXV0WJkCZm_DkFYK4QC3-113" value="" style="rounded=0;whiteSpace=wrap;html=1;direction=west;" parent="1" vertex="1">
          <mxGeometry x="292.25" y="297.5" width="110" height="85" as="geometry" />
        </mxCell>
        <mxCell id="EXV0WJkCZm_DkFYK4QC3-114" value="" style="rounded=0;whiteSpace=wrap;html=1;direction=west;" parent="1" vertex="1">
          <mxGeometry x="292.25" y="320" width="20" height="20" as="geometry" />
        </mxCell>
        <mxCell id="EXV0WJkCZm_DkFYK4QC3-115" value="" style="rounded=0;whiteSpace=wrap;html=1;direction=west;" parent="1" vertex="1">
          <mxGeometry x="292.25" y="352.5" width="20" height="20" as="geometry" />
        </mxCell>
        <mxCell id="EXV0WJkCZm_DkFYK4QC3-116" value="" style="rounded=0;whiteSpace=wrap;html=1;direction=north;" parent="1" vertex="1">
          <mxGeometry x="317.25" y="339" width="4" height="17" as="geometry" />
        </mxCell>
        <mxCell id="EXV0WJkCZm_DkFYK4QC3-117" value="" style="whiteSpace=wrap;html=1;aspect=fixed;fillColor=#212121;direction=west;" parent="1" vertex="1">
          <mxGeometry x="343.25" y="328.5" width="23" height="23" as="geometry" />
        </mxCell>
        <mxCell id="EXV0WJkCZm_DkFYK4QC3-118" value="" style="rounded=0;whiteSpace=wrap;html=1;" parent="1" vertex="1">
          <mxGeometry x="80" y="312.5" width="110" height="70" as="geometry" />
        </mxCell>
        <mxCell id="EXV0WJkCZm_DkFYK4QC3-119" value="" style="rounded=0;whiteSpace=wrap;html=1;" parent="1" vertex="1">
          <mxGeometry x="170" y="322.5" width="20" height="20" as="geometry" />
        </mxCell>
        <mxCell id="EXV0WJkCZm_DkFYK4QC3-120" value="" style="rounded=0;whiteSpace=wrap;html=1;direction=south;" parent="1" vertex="1">
          <mxGeometry x="84" y="339" width="4" height="17" as="geometry" />
        </mxCell>
        <mxCell id="EXV0WJkCZm_DkFYK4QC3-121" value="" style="rounded=0;whiteSpace=wrap;html=1;" parent="1" vertex="1">
          <mxGeometry x="170" y="352.5" width="20" height="20" as="geometry" />
        </mxCell>
        <mxCell id="EXV0WJkCZm_DkFYK4QC3-122" value="" style="rounded=0;whiteSpace=wrap;html=1;" parent="1" vertex="1">
          <mxGeometry x="84" y="316.5" width="73" height="13" as="geometry" />
        </mxCell>
        <mxCell id="EXV0WJkCZm_DkFYK4QC3-123" value="" style="ellipse;whiteSpace=wrap;html=1;aspect=fixed;" parent="1" vertex="1">
          <mxGeometry x="87" y="318.5" width="3" height="3" as="geometry" />
        </mxCell>
        <mxCell id="EXV0WJkCZm_DkFYK4QC3-124" value="" style="ellipse;whiteSpace=wrap;html=1;aspect=fixed;" parent="1" vertex="1">
          <mxGeometry x="94" y="318.5" width="3" height="3" as="geometry" />
        </mxCell>
        <mxCell id="EXV0WJkCZm_DkFYK4QC3-125" value="" style="ellipse;whiteSpace=wrap;html=1;aspect=fixed;" parent="1" vertex="1">
          <mxGeometry x="101" y="318.5" width="3" height="3" as="geometry" />
        </mxCell>
        <mxCell id="EXV0WJkCZm_DkFYK4QC3-126" value="" style="ellipse;whiteSpace=wrap;html=1;aspect=fixed;" parent="1" vertex="1">
          <mxGeometry x="108" y="318.5" width="3" height="3" as="geometry" />
        </mxCell>
        <mxCell id="EXV0WJkCZm_DkFYK4QC3-127" value="" style="ellipse;whiteSpace=wrap;html=1;aspect=fixed;" parent="1" vertex="1">
          <mxGeometry x="115" y="318.5" width="3" height="3" as="geometry" />
        </mxCell>
        <mxCell id="EXV0WJkCZm_DkFYK4QC3-128" value="" style="ellipse;whiteSpace=wrap;html=1;aspect=fixed;" parent="1" vertex="1">
          <mxGeometry x="122" y="318.5" width="3" height="3" as="geometry" />
        </mxCell>
        <mxCell id="EXV0WJkCZm_DkFYK4QC3-129" value="" style="ellipse;whiteSpace=wrap;html=1;aspect=fixed;" parent="1" vertex="1">
          <mxGeometry x="129" y="318.5" width="3" height="3" as="geometry" />
        </mxCell>
        <mxCell id="EXV0WJkCZm_DkFYK4QC3-130" value="" style="ellipse;whiteSpace=wrap;html=1;aspect=fixed;" parent="1" vertex="1">
          <mxGeometry x="136" y="318.5" width="3" height="3" as="geometry" />
        </mxCell>
        <mxCell id="EXV0WJkCZm_DkFYK4QC3-131" value="" style="ellipse;whiteSpace=wrap;html=1;aspect=fixed;" parent="1" vertex="1">
          <mxGeometry x="143" y="318.5" width="3" height="3" as="geometry" />
        </mxCell>
        <mxCell id="EXV0WJkCZm_DkFYK4QC3-132" value="" style="ellipse;whiteSpace=wrap;html=1;aspect=fixed;" parent="1" vertex="1">
          <mxGeometry x="150" y="318.5" width="3" height="3" as="geometry" />
        </mxCell>
        <mxCell id="EXV0WJkCZm_DkFYK4QC3-133" value="" style="ellipse;whiteSpace=wrap;html=1;aspect=fixed;" parent="1" vertex="1">
          <mxGeometry x="87" y="324.5" width="3" height="3" as="geometry" />
        </mxCell>
        <mxCell id="EXV0WJkCZm_DkFYK4QC3-134" value="" style="ellipse;whiteSpace=wrap;html=1;aspect=fixed;" parent="1" vertex="1">
          <mxGeometry x="94" y="324.5" width="3" height="3" as="geometry" />
        </mxCell>
        <mxCell id="EXV0WJkCZm_DkFYK4QC3-135" value="" style="ellipse;whiteSpace=wrap;html=1;aspect=fixed;" parent="1" vertex="1">
          <mxGeometry x="101" y="324.5" width="3" height="3" as="geometry" />
        </mxCell>
        <mxCell id="EXV0WJkCZm_DkFYK4QC3-136" value="" style="ellipse;whiteSpace=wrap;html=1;aspect=fixed;" parent="1" vertex="1">
          <mxGeometry x="108" y="324.5" width="3" height="3" as="geometry" />
        </mxCell>
        <mxCell id="EXV0WJkCZm_DkFYK4QC3-137" value="" style="ellipse;whiteSpace=wrap;html=1;aspect=fixed;" parent="1" vertex="1">
          <mxGeometry x="115" y="324.5" width="3" height="3" as="geometry" />
        </mxCell>
        <mxCell id="EXV0WJkCZm_DkFYK4QC3-138" value="" style="ellipse;whiteSpace=wrap;html=1;aspect=fixed;" parent="1" vertex="1">
          <mxGeometry x="122" y="324.5" width="3" height="3" as="geometry" />
        </mxCell>
        <mxCell id="EXV0WJkCZm_DkFYK4QC3-139" value="" style="ellipse;whiteSpace=wrap;html=1;aspect=fixed;" parent="1" vertex="1">
          <mxGeometry x="129" y="324.5" width="3" height="3" as="geometry" />
        </mxCell>
        <mxCell id="EXV0WJkCZm_DkFYK4QC3-140" value="" style="ellipse;whiteSpace=wrap;html=1;aspect=fixed;" parent="1" vertex="1">
          <mxGeometry x="136" y="324.5" width="3" height="3" as="geometry" />
        </mxCell>
        <mxCell id="EXV0WJkCZm_DkFYK4QC3-141" value="" style="ellipse;whiteSpace=wrap;html=1;aspect=fixed;" parent="1" vertex="1">
          <mxGeometry x="143" y="324.5" width="3" height="3" as="geometry" />
        </mxCell>
        <mxCell id="EXV0WJkCZm_DkFYK4QC3-142" value="" style="ellipse;whiteSpace=wrap;html=1;aspect=fixed;" parent="1" vertex="1">
          <mxGeometry x="150" y="324.5" width="3" height="3" as="geometry" />
        </mxCell>
        <mxCell id="EXV0WJkCZm_DkFYK4QC3-143" value="" style="whiteSpace=wrap;html=1;aspect=fixed;fillColor=#212121;" parent="1" vertex="1">
          <mxGeometry x="150" y="362.5" width="10" height="10" as="geometry" />
        </mxCell>
        <mxCell id="EXV0WJkCZm_DkFYK4QC3-144" value="" style="whiteSpace=wrap;html=1;aspect=fixed;fillColor=#212121;" parent="1" vertex="1">
          <mxGeometry x="111" y="342.5" width="23.5" height="23.5" as="geometry" />
        </mxCell>
        <mxCell id="EXV0WJkCZm_DkFYK4QC3-145" value="" style="rounded=0;whiteSpace=wrap;html=1;fillColor=#212121;" parent="1" vertex="1">
          <mxGeometry x="150" y="336" width="8.5" height="13.5" as="geometry" />
        </mxCell>
        <mxCell id="EXV0WJkCZm_DkFYK4QC3-146" value="" style="rounded=0;whiteSpace=wrap;html=1;direction=north;" parent="1" vertex="1">
          <mxGeometry x="382.25" y="305" width="13" height="27" as="geometry" />
        </mxCell>
        <mxCell id="EXV0WJkCZm_DkFYK4QC3-147" value="" style="ellipse;whiteSpace=wrap;html=1;aspect=fixed;direction=north;" parent="1" vertex="1">
          <mxGeometry x="383.75" y="308" width="3" height="3" as="geometry" />
        </mxCell>
        <mxCell id="EXV0WJkCZm_DkFYK4QC3-148" value="" style="ellipse;whiteSpace=wrap;html=1;aspect=fixed;direction=north;" parent="1" vertex="1">
          <mxGeometry x="390.75" y="308" width="3" height="3" as="geometry" />
        </mxCell>
        <mxCell id="EXV0WJkCZm_DkFYK4QC3-149" value="" style="ellipse;whiteSpace=wrap;html=1;aspect=fixed;direction=north;" parent="1" vertex="1">
          <mxGeometry x="383.75" y="320" width="3" height="3" as="geometry" />
        </mxCell>
        <mxCell id="EXV0WJkCZm_DkFYK4QC3-150" value="" style="ellipse;whiteSpace=wrap;html=1;aspect=fixed;direction=north;" parent="1" vertex="1">
          <mxGeometry x="390.75" y="320" width="3" height="3" as="geometry" />
        </mxCell>
        <mxCell id="EXV0WJkCZm_DkFYK4QC3-151" value="" style="ellipse;whiteSpace=wrap;html=1;aspect=fixed;direction=north;" parent="1" vertex="1">
          <mxGeometry x="383.75" y="314" width="3" height="3" as="geometry" />
        </mxCell>
        <mxCell id="EXV0WJkCZm_DkFYK4QC3-152" value="" style="ellipse;whiteSpace=wrap;html=1;aspect=fixed;direction=north;" parent="1" vertex="1">
          <mxGeometry x="390.75" y="314" width="3" height="3" as="geometry" />
        </mxCell>
        <mxCell id="EXV0WJkCZm_DkFYK4QC3-153" value="" style="ellipse;whiteSpace=wrap;html=1;aspect=fixed;direction=north;" parent="1" vertex="1">
          <mxGeometry x="383.75" y="326" width="3" height="3" as="geometry" />
        </mxCell>
        <mxCell id="EXV0WJkCZm_DkFYK4QC3-154" value="" style="ellipse;whiteSpace=wrap;html=1;aspect=fixed;direction=north;" parent="1" vertex="1">
          <mxGeometry x="390.75" y="326" width="3" height="3" as="geometry" />
        </mxCell>
        <mxCell id="EXV0WJkCZm_DkFYK4QC3-155" value="" style="rounded=0;whiteSpace=wrap;html=1;direction=north;" parent="1" vertex="1">
          <mxGeometry x="382.25" y="348.5" width="13" height="27" as="geometry" />
        </mxCell>
        <mxCell id="EXV0WJkCZm_DkFYK4QC3-156" value="" style="ellipse;whiteSpace=wrap;html=1;aspect=fixed;direction=north;" parent="1" vertex="1">
          <mxGeometry x="383.75" y="351.5" width="3" height="3" as="geometry" />
        </mxCell>
        <mxCell id="EXV0WJkCZm_DkFYK4QC3-157" value="" style="ellipse;whiteSpace=wrap;html=1;aspect=fixed;direction=north;" parent="1" vertex="1">
          <mxGeometry x="390.75" y="351.5" width="3" height="3" as="geometry" />
        </mxCell>
        <mxCell id="EXV0WJkCZm_DkFYK4QC3-158" value="" style="ellipse;whiteSpace=wrap;html=1;aspect=fixed;direction=north;" parent="1" vertex="1">
          <mxGeometry x="383.75" y="363.5" width="3" height="3" as="geometry" />
        </mxCell>
        <mxCell id="EXV0WJkCZm_DkFYK4QC3-159" value="" style="ellipse;whiteSpace=wrap;html=1;aspect=fixed;direction=north;" parent="1" vertex="1">
          <mxGeometry x="390.75" y="363.5" width="3" height="3" as="geometry" />
        </mxCell>
        <mxCell id="EXV0WJkCZm_DkFYK4QC3-160" value="" style="ellipse;whiteSpace=wrap;html=1;aspect=fixed;direction=north;" parent="1" vertex="1">
          <mxGeometry x="383.75" y="357.5" width="3" height="3" as="geometry" />
        </mxCell>
        <mxCell id="EXV0WJkCZm_DkFYK4QC3-161" value="" style="ellipse;whiteSpace=wrap;html=1;aspect=fixed;direction=north;" parent="1" vertex="1">
          <mxGeometry x="390.75" y="357.5" width="3" height="3" as="geometry" />
        </mxCell>
        <mxCell id="EXV0WJkCZm_DkFYK4QC3-162" value="" style="ellipse;whiteSpace=wrap;html=1;aspect=fixed;direction=north;" parent="1" vertex="1">
          <mxGeometry x="383.75" y="369.5" width="3" height="3" as="geometry" />
        </mxCell>
        <mxCell id="EXV0WJkCZm_DkFYK4QC3-163" value="" style="ellipse;whiteSpace=wrap;html=1;aspect=fixed;direction=north;" parent="1" vertex="1">
          <mxGeometry x="390.75" y="369.5" width="3" height="3" as="geometry" />
        </mxCell>
        <mxCell id="EXV0WJkCZm_DkFYK4QC3-164" value="RJ-45" style="text;html=1;strokeColor=none;fillColor=none;align=center;verticalAlign=middle;whiteSpace=wrap;rounded=0;fontSize=6;" parent="1" vertex="1">
          <mxGeometry x="170" y="357.5" width="20" height="10" as="geometry" />
        </mxCell>
        <mxCell id="EXV0WJkCZm_DkFYK4QC3-165" value="USB" style="text;html=1;strokeColor=none;fillColor=none;align=center;verticalAlign=middle;whiteSpace=wrap;rounded=0;fontSize=6;" parent="1" vertex="1">
          <mxGeometry x="170" y="327.5" width="20" height="10" as="geometry" />
        </mxCell>
        <mxCell id="EXV0WJkCZm_DkFYK4QC3-166" value="RJ-45" style="text;html=1;strokeColor=none;fillColor=none;align=center;verticalAlign=middle;whiteSpace=wrap;rounded=0;fontSize=6;" parent="1" vertex="1">
          <mxGeometry x="292.25" y="358" width="20" height="10" as="geometry" />
        </mxCell>
        <mxCell id="EXV0WJkCZm_DkFYK4QC3-167" value="USB" style="text;html=1;strokeColor=none;fillColor=none;align=center;verticalAlign=middle;whiteSpace=wrap;rounded=0;fontSize=6;" parent="1" vertex="1">
          <mxGeometry x="292.25" y="325" width="20" height="10" as="geometry" />
        </mxCell>
        <mxCell id="EXV0WJkCZm_DkFYK4QC3-168" value="PCI" style="text;html=1;strokeColor=none;fillColor=none;align=center;verticalAlign=middle;whiteSpace=wrap;rounded=0;fontSize=6;rotation=-90;" parent="1" vertex="1">
          <mxGeometry x="316.25" y="343.87" width="20" height="7.25" as="geometry" />
        </mxCell>
        <mxCell id="EXV0WJkCZm_DkFYK4QC3-169" value="PCI" style="text;html=1;strokeColor=none;fillColor=none;align=center;verticalAlign=middle;whiteSpace=wrap;rounded=0;fontSize=6;rotation=-90;" parent="1" vertex="1">
          <mxGeometry x="84" y="343.87" width="20" height="7.25" as="geometry" />
        </mxCell>
        <mxCell id="EXV0WJkCZm_DkFYK4QC3-170" value="" style="rounded=0;whiteSpace=wrap;html=1;" parent="1" vertex="1">
          <mxGeometry x="302.25" y="301" width="73" height="13" as="geometry" />
        </mxCell>
        <mxCell id="EXV0WJkCZm_DkFYK4QC3-171" value="" style="ellipse;whiteSpace=wrap;html=1;aspect=fixed;" parent="1" vertex="1">
          <mxGeometry x="305.25" y="303" width="3" height="3" as="geometry" />
        </mxCell>
        <mxCell id="EXV0WJkCZm_DkFYK4QC3-172" value="" style="ellipse;whiteSpace=wrap;html=1;aspect=fixed;" parent="1" vertex="1">
          <mxGeometry x="312.25" y="303" width="3" height="3" as="geometry" />
        </mxCell>
        <mxCell id="EXV0WJkCZm_DkFYK4QC3-173" value="" style="ellipse;whiteSpace=wrap;html=1;aspect=fixed;" parent="1" vertex="1">
          <mxGeometry x="319.25" y="303" width="3" height="3" as="geometry" />
        </mxCell>
        <mxCell id="EXV0WJkCZm_DkFYK4QC3-174" value="" style="ellipse;whiteSpace=wrap;html=1;aspect=fixed;" parent="1" vertex="1">
          <mxGeometry x="326.25" y="303" width="3" height="3" as="geometry" />
        </mxCell>
        <mxCell id="EXV0WJkCZm_DkFYK4QC3-175" value="" style="ellipse;whiteSpace=wrap;html=1;aspect=fixed;" parent="1" vertex="1">
          <mxGeometry x="333.25" y="303" width="3" height="3" as="geometry" />
        </mxCell>
        <mxCell id="EXV0WJkCZm_DkFYK4QC3-176" value="" style="ellipse;whiteSpace=wrap;html=1;aspect=fixed;" parent="1" vertex="1">
          <mxGeometry x="340.25" y="303" width="3" height="3" as="geometry" />
        </mxCell>
        <mxCell id="EXV0WJkCZm_DkFYK4QC3-177" value="" style="ellipse;whiteSpace=wrap;html=1;aspect=fixed;" parent="1" vertex="1">
          <mxGeometry x="347.25" y="303" width="3" height="3" as="geometry" />
        </mxCell>
        <mxCell id="EXV0WJkCZm_DkFYK4QC3-178" value="" style="ellipse;whiteSpace=wrap;html=1;aspect=fixed;" parent="1" vertex="1">
          <mxGeometry x="354.25" y="303" width="3" height="3" as="geometry" />
        </mxCell>
        <mxCell id="EXV0WJkCZm_DkFYK4QC3-179" value="" style="ellipse;whiteSpace=wrap;html=1;aspect=fixed;" parent="1" vertex="1">
          <mxGeometry x="361.25" y="303" width="3" height="3" as="geometry" />
        </mxCell>
        <mxCell id="EXV0WJkCZm_DkFYK4QC3-180" value="" style="ellipse;whiteSpace=wrap;html=1;aspect=fixed;" parent="1" vertex="1">
          <mxGeometry x="368.25" y="303" width="3" height="3" as="geometry" />
        </mxCell>
        <mxCell id="EXV0WJkCZm_DkFYK4QC3-181" value="" style="ellipse;whiteSpace=wrap;html=1;aspect=fixed;" parent="1" vertex="1">
          <mxGeometry x="305.25" y="309" width="3" height="3" as="geometry" />
        </mxCell>
        <mxCell id="EXV0WJkCZm_DkFYK4QC3-182" value="" style="ellipse;whiteSpace=wrap;html=1;aspect=fixed;" parent="1" vertex="1">
          <mxGeometry x="312.25" y="309" width="3" height="3" as="geometry" />
        </mxCell>
        <mxCell id="EXV0WJkCZm_DkFYK4QC3-183" value="" style="ellipse;whiteSpace=wrap;html=1;aspect=fixed;" parent="1" vertex="1">
          <mxGeometry x="319.25" y="309" width="3" height="3" as="geometry" />
        </mxCell>
        <mxCell id="EXV0WJkCZm_DkFYK4QC3-184" value="" style="ellipse;whiteSpace=wrap;html=1;aspect=fixed;" parent="1" vertex="1">
          <mxGeometry x="326.25" y="309" width="3" height="3" as="geometry" />
        </mxCell>
        <mxCell id="EXV0WJkCZm_DkFYK4QC3-185" value="" style="ellipse;whiteSpace=wrap;html=1;aspect=fixed;" parent="1" vertex="1">
          <mxGeometry x="333.25" y="309" width="3" height="3" as="geometry" />
        </mxCell>
        <mxCell id="EXV0WJkCZm_DkFYK4QC3-186" value="" style="ellipse;whiteSpace=wrap;html=1;aspect=fixed;" parent="1" vertex="1">
          <mxGeometry x="340.25" y="309" width="3" height="3" as="geometry" />
        </mxCell>
        <mxCell id="EXV0WJkCZm_DkFYK4QC3-187" value="" style="ellipse;whiteSpace=wrap;html=1;aspect=fixed;" parent="1" vertex="1">
          <mxGeometry x="347.25" y="309" width="3" height="3" as="geometry" />
        </mxCell>
        <mxCell id="EXV0WJkCZm_DkFYK4QC3-188" value="" style="ellipse;whiteSpace=wrap;html=1;aspect=fixed;" parent="1" vertex="1">
          <mxGeometry x="354.25" y="309" width="3" height="3" as="geometry" />
        </mxCell>
        <mxCell id="EXV0WJkCZm_DkFYK4QC3-189" value="" style="ellipse;whiteSpace=wrap;html=1;aspect=fixed;" parent="1" vertex="1">
          <mxGeometry x="361.25" y="309" width="3" height="3" as="geometry" />
        </mxCell>
        <mxCell id="EXV0WJkCZm_DkFYK4QC3-190" value="" style="ellipse;whiteSpace=wrap;html=1;aspect=fixed;" parent="1" vertex="1">
          <mxGeometry x="368.25" y="309" width="3" height="3" as="geometry" />
        </mxCell>
        <mxCell id="EXV0WJkCZm_DkFYK4QC3-191" value="" style="rounded=0;whiteSpace=wrap;html=1;direction=west;" parent="1" vertex="1">
          <mxGeometry x="292.25" y="80" width="110" height="85" as="geometry" />
        </mxCell>
        <mxCell id="EXV0WJkCZm_DkFYK4QC3-192" value="" style="rounded=0;whiteSpace=wrap;html=1;direction=west;" parent="1" vertex="1">
          <mxGeometry x="292.25" y="102.5" width="20" height="20" as="geometry" />
        </mxCell>
        <mxCell id="EXV0WJkCZm_DkFYK4QC3-193" value="" style="rounded=0;whiteSpace=wrap;html=1;direction=west;" parent="1" vertex="1">
          <mxGeometry x="292.25" y="135" width="20" height="20" as="geometry" />
        </mxCell>
        <mxCell id="EXV0WJkCZm_DkFYK4QC3-194" value="" style="rounded=0;whiteSpace=wrap;html=1;direction=north;" parent="1" vertex="1">
          <mxGeometry x="319.25" y="120.75" width="4" height="17" as="geometry" />
        </mxCell>
        <mxCell id="EXV0WJkCZm_DkFYK4QC3-195" value="" style="whiteSpace=wrap;html=1;aspect=fixed;fillColor=#212121;direction=west;" parent="1" vertex="1">
          <mxGeometry x="343.25" y="111" width="23" height="23" as="geometry" />
        </mxCell>
        <mxCell id="EXV0WJkCZm_DkFYK4QC3-196" value="" style="rounded=0;whiteSpace=wrap;html=1;" parent="1" vertex="1">
          <mxGeometry x="80" y="95" width="110" height="70" as="geometry" />
        </mxCell>
        <mxCell id="EXV0WJkCZm_DkFYK4QC3-197" value="" style="rounded=0;whiteSpace=wrap;html=1;" parent="1" vertex="1">
          <mxGeometry x="170" y="105" width="20" height="20" as="geometry" />
        </mxCell>
        <mxCell id="EXV0WJkCZm_DkFYK4QC3-198" value="" style="rounded=0;whiteSpace=wrap;html=1;direction=south;" parent="1" vertex="1">
          <mxGeometry x="84" y="121.5" width="4" height="17" as="geometry" />
        </mxCell>
        <mxCell id="EXV0WJkCZm_DkFYK4QC3-199" value="" style="rounded=0;whiteSpace=wrap;html=1;" parent="1" vertex="1">
          <mxGeometry x="170" y="135" width="20" height="20" as="geometry" />
        </mxCell>
        <mxCell id="EXV0WJkCZm_DkFYK4QC3-200" value="" style="rounded=0;whiteSpace=wrap;html=1;" parent="1" vertex="1">
          <mxGeometry x="84" y="99" width="73" height="13" as="geometry" />
        </mxCell>
        <mxCell id="EXV0WJkCZm_DkFYK4QC3-201" value="" style="ellipse;whiteSpace=wrap;html=1;aspect=fixed;" parent="1" vertex="1">
          <mxGeometry x="87" y="101" width="3" height="3" as="geometry" />
        </mxCell>
        <mxCell id="EXV0WJkCZm_DkFYK4QC3-202" value="" style="ellipse;whiteSpace=wrap;html=1;aspect=fixed;" parent="1" vertex="1">
          <mxGeometry x="94" y="101" width="3" height="3" as="geometry" />
        </mxCell>
        <mxCell id="EXV0WJkCZm_DkFYK4QC3-203" value="" style="ellipse;whiteSpace=wrap;html=1;aspect=fixed;" parent="1" vertex="1">
          <mxGeometry x="101" y="101" width="3" height="3" as="geometry" />
        </mxCell>
        <mxCell id="EXV0WJkCZm_DkFYK4QC3-204" value="" style="ellipse;whiteSpace=wrap;html=1;aspect=fixed;" parent="1" vertex="1">
          <mxGeometry x="108" y="101" width="3" height="3" as="geometry" />
        </mxCell>
        <mxCell id="EXV0WJkCZm_DkFYK4QC3-205" value="" style="ellipse;whiteSpace=wrap;html=1;aspect=fixed;" parent="1" vertex="1">
          <mxGeometry x="115" y="101" width="3" height="3" as="geometry" />
        </mxCell>
        <mxCell id="EXV0WJkCZm_DkFYK4QC3-206" value="" style="ellipse;whiteSpace=wrap;html=1;aspect=fixed;" parent="1" vertex="1">
          <mxGeometry x="122" y="101" width="3" height="3" as="geometry" />
        </mxCell>
        <mxCell id="EXV0WJkCZm_DkFYK4QC3-207" value="" style="ellipse;whiteSpace=wrap;html=1;aspect=fixed;" parent="1" vertex="1">
          <mxGeometry x="129" y="101" width="3" height="3" as="geometry" />
        </mxCell>
        <mxCell id="EXV0WJkCZm_DkFYK4QC3-208" value="" style="ellipse;whiteSpace=wrap;html=1;aspect=fixed;" parent="1" vertex="1">
          <mxGeometry x="136" y="101" width="3" height="3" as="geometry" />
        </mxCell>
        <mxCell id="EXV0WJkCZm_DkFYK4QC3-209" value="" style="ellipse;whiteSpace=wrap;html=1;aspect=fixed;" parent="1" vertex="1">
          <mxGeometry x="143" y="101" width="3" height="3" as="geometry" />
        </mxCell>
        <mxCell id="EXV0WJkCZm_DkFYK4QC3-210" value="" style="ellipse;whiteSpace=wrap;html=1;aspect=fixed;" parent="1" vertex="1">
          <mxGeometry x="150" y="101" width="3" height="3" as="geometry" />
        </mxCell>
        <mxCell id="EXV0WJkCZm_DkFYK4QC3-211" value="" style="ellipse;whiteSpace=wrap;html=1;aspect=fixed;" parent="1" vertex="1">
          <mxGeometry x="87" y="107" width="3" height="3" as="geometry" />
        </mxCell>
        <mxCell id="EXV0WJkCZm_DkFYK4QC3-212" value="" style="ellipse;whiteSpace=wrap;html=1;aspect=fixed;" parent="1" vertex="1">
          <mxGeometry x="94" y="107" width="3" height="3" as="geometry" />
        </mxCell>
        <mxCell id="EXV0WJkCZm_DkFYK4QC3-213" value="" style="ellipse;whiteSpace=wrap;html=1;aspect=fixed;" parent="1" vertex="1">
          <mxGeometry x="101" y="107" width="3" height="3" as="geometry" />
        </mxCell>
        <mxCell id="EXV0WJkCZm_DkFYK4QC3-214" value="" style="ellipse;whiteSpace=wrap;html=1;aspect=fixed;" parent="1" vertex="1">
          <mxGeometry x="108" y="107" width="3" height="3" as="geometry" />
        </mxCell>
        <mxCell id="EXV0WJkCZm_DkFYK4QC3-215" value="" style="ellipse;whiteSpace=wrap;html=1;aspect=fixed;" parent="1" vertex="1">
          <mxGeometry x="115" y="107" width="3" height="3" as="geometry" />
        </mxCell>
        <mxCell id="EXV0WJkCZm_DkFYK4QC3-216" value="" style="ellipse;whiteSpace=wrap;html=1;aspect=fixed;" parent="1" vertex="1">
          <mxGeometry x="122" y="107" width="3" height="3" as="geometry" />
        </mxCell>
        <mxCell id="EXV0WJkCZm_DkFYK4QC3-217" value="" style="ellipse;whiteSpace=wrap;html=1;aspect=fixed;" parent="1" vertex="1">
          <mxGeometry x="129" y="107" width="3" height="3" as="geometry" />
        </mxCell>
        <mxCell id="EXV0WJkCZm_DkFYK4QC3-218" value="" style="ellipse;whiteSpace=wrap;html=1;aspect=fixed;" parent="1" vertex="1">
          <mxGeometry x="136" y="107" width="3" height="3" as="geometry" />
        </mxCell>
        <mxCell id="EXV0WJkCZm_DkFYK4QC3-219" value="" style="ellipse;whiteSpace=wrap;html=1;aspect=fixed;" parent="1" vertex="1">
          <mxGeometry x="143" y="107" width="3" height="3" as="geometry" />
        </mxCell>
        <mxCell id="EXV0WJkCZm_DkFYK4QC3-220" value="" style="ellipse;whiteSpace=wrap;html=1;aspect=fixed;" parent="1" vertex="1">
          <mxGeometry x="150" y="107" width="3" height="3" as="geometry" />
        </mxCell>
        <mxCell id="EXV0WJkCZm_DkFYK4QC3-221" value="" style="whiteSpace=wrap;html=1;aspect=fixed;fillColor=#212121;" parent="1" vertex="1">
          <mxGeometry x="150" y="145" width="10" height="10" as="geometry" />
        </mxCell>
        <mxCell id="EXV0WJkCZm_DkFYK4QC3-222" value="" style="whiteSpace=wrap;html=1;aspect=fixed;fillColor=#212121;" parent="1" vertex="1">
          <mxGeometry x="111" y="125" width="23.5" height="23.5" as="geometry" />
        </mxCell>
        <mxCell id="EXV0WJkCZm_DkFYK4QC3-223" value="" style="rounded=0;whiteSpace=wrap;html=1;fillColor=#212121;" parent="1" vertex="1">
          <mxGeometry x="150" y="118.5" width="8.5" height="13.5" as="geometry" />
        </mxCell>
        <mxCell id="EXV0WJkCZm_DkFYK4QC3-224" value="" style="rounded=0;whiteSpace=wrap;html=1;direction=north;" parent="1" vertex="1">
          <mxGeometry x="382.25" y="87.5" width="13" height="27" as="geometry" />
        </mxCell>
        <mxCell id="EXV0WJkCZm_DkFYK4QC3-225" value="" style="ellipse;whiteSpace=wrap;html=1;aspect=fixed;direction=north;" parent="1" vertex="1">
          <mxGeometry x="383.75" y="90.5" width="3" height="3" as="geometry" />
        </mxCell>
        <mxCell id="EXV0WJkCZm_DkFYK4QC3-226" value="" style="ellipse;whiteSpace=wrap;html=1;aspect=fixed;direction=north;" parent="1" vertex="1">
          <mxGeometry x="390.75" y="90.5" width="3" height="3" as="geometry" />
        </mxCell>
        <mxCell id="EXV0WJkCZm_DkFYK4QC3-227" value="" style="ellipse;whiteSpace=wrap;html=1;aspect=fixed;direction=north;" parent="1" vertex="1">
          <mxGeometry x="383.75" y="102.5" width="3" height="3" as="geometry" />
        </mxCell>
        <mxCell id="EXV0WJkCZm_DkFYK4QC3-228" value="" style="ellipse;whiteSpace=wrap;html=1;aspect=fixed;direction=north;" parent="1" vertex="1">
          <mxGeometry x="390.75" y="102.5" width="3" height="3" as="geometry" />
        </mxCell>
        <mxCell id="EXV0WJkCZm_DkFYK4QC3-229" value="" style="ellipse;whiteSpace=wrap;html=1;aspect=fixed;direction=north;" parent="1" vertex="1">
          <mxGeometry x="383.75" y="96.5" width="3" height="3" as="geometry" />
        </mxCell>
        <mxCell id="EXV0WJkCZm_DkFYK4QC3-230" value="" style="ellipse;whiteSpace=wrap;html=1;aspect=fixed;direction=north;" parent="1" vertex="1">
          <mxGeometry x="390.75" y="96.5" width="3" height="3" as="geometry" />
        </mxCell>
        <mxCell id="EXV0WJkCZm_DkFYK4QC3-231" value="" style="ellipse;whiteSpace=wrap;html=1;aspect=fixed;direction=north;" parent="1" vertex="1">
          <mxGeometry x="383.75" y="108.5" width="3" height="3" as="geometry" />
        </mxCell>
        <mxCell id="EXV0WJkCZm_DkFYK4QC3-232" value="" style="ellipse;whiteSpace=wrap;html=1;aspect=fixed;direction=north;" parent="1" vertex="1">
          <mxGeometry x="390.75" y="108.5" width="3" height="3" as="geometry" />
        </mxCell>
        <mxCell id="EXV0WJkCZm_DkFYK4QC3-233" value="" style="rounded=0;whiteSpace=wrap;html=1;direction=north;" parent="1" vertex="1">
          <mxGeometry x="382.25" y="131" width="13" height="27" as="geometry" />
        </mxCell>
        <mxCell id="EXV0WJkCZm_DkFYK4QC3-234" value="" style="ellipse;whiteSpace=wrap;html=1;aspect=fixed;direction=north;" parent="1" vertex="1">
          <mxGeometry x="383.75" y="134" width="3" height="3" as="geometry" />
        </mxCell>
        <mxCell id="EXV0WJkCZm_DkFYK4QC3-235" value="" style="ellipse;whiteSpace=wrap;html=1;aspect=fixed;direction=north;" parent="1" vertex="1">
          <mxGeometry x="390.75" y="134" width="3" height="3" as="geometry" />
        </mxCell>
        <mxCell id="EXV0WJkCZm_DkFYK4QC3-236" value="" style="ellipse;whiteSpace=wrap;html=1;aspect=fixed;direction=north;" parent="1" vertex="1">
          <mxGeometry x="383.75" y="146" width="3" height="3" as="geometry" />
        </mxCell>
        <mxCell id="EXV0WJkCZm_DkFYK4QC3-237" value="" style="ellipse;whiteSpace=wrap;html=1;aspect=fixed;direction=north;" parent="1" vertex="1">
          <mxGeometry x="390.75" y="146" width="3" height="3" as="geometry" />
        </mxCell>
        <mxCell id="EXV0WJkCZm_DkFYK4QC3-238" value="" style="ellipse;whiteSpace=wrap;html=1;aspect=fixed;direction=north;" parent="1" vertex="1">
          <mxGeometry x="383.75" y="140" width="3" height="3" as="geometry" />
        </mxCell>
        <mxCell id="EXV0WJkCZm_DkFYK4QC3-239" value="" style="ellipse;whiteSpace=wrap;html=1;aspect=fixed;direction=north;" parent="1" vertex="1">
          <mxGeometry x="390.75" y="140" width="3" height="3" as="geometry" />
        </mxCell>
        <mxCell id="EXV0WJkCZm_DkFYK4QC3-240" value="" style="ellipse;whiteSpace=wrap;html=1;aspect=fixed;direction=north;" parent="1" vertex="1">
          <mxGeometry x="383.75" y="152" width="3" height="3" as="geometry" />
        </mxCell>
        <mxCell id="EXV0WJkCZm_DkFYK4QC3-241" value="" style="ellipse;whiteSpace=wrap;html=1;aspect=fixed;direction=north;" parent="1" vertex="1">
          <mxGeometry x="390.75" y="152" width="3" height="3" as="geometry" />
        </mxCell>
        <mxCell id="EXV0WJkCZm_DkFYK4QC3-242" value="RJ-45" style="text;html=1;strokeColor=none;fillColor=none;align=center;verticalAlign=middle;whiteSpace=wrap;rounded=0;fontSize=6;" parent="1" vertex="1">
          <mxGeometry x="170" y="140" width="20" height="10" as="geometry" />
        </mxCell>
        <mxCell id="EXV0WJkCZm_DkFYK4QC3-243" value="USB" style="text;html=1;strokeColor=none;fillColor=none;align=center;verticalAlign=middle;whiteSpace=wrap;rounded=0;fontSize=6;" parent="1" vertex="1">
          <mxGeometry x="170" y="110" width="20" height="10" as="geometry" />
        </mxCell>
        <mxCell id="EXV0WJkCZm_DkFYK4QC3-244" value="RJ-45" style="text;html=1;strokeColor=none;fillColor=none;align=center;verticalAlign=middle;whiteSpace=wrap;rounded=0;fontSize=6;" parent="1" vertex="1">
          <mxGeometry x="292.25" y="140.5" width="20" height="10" as="geometry" />
        </mxCell>
        <mxCell id="EXV0WJkCZm_DkFYK4QC3-245" value="USB" style="text;html=1;strokeColor=none;fillColor=none;align=center;verticalAlign=middle;whiteSpace=wrap;rounded=0;fontSize=6;" parent="1" vertex="1">
          <mxGeometry x="292.25" y="107.5" width="20" height="10" as="geometry" />
        </mxCell>
        <mxCell id="EXV0WJkCZm_DkFYK4QC3-246" value="PCI" style="text;html=1;strokeColor=none;fillColor=none;align=center;verticalAlign=middle;whiteSpace=wrap;rounded=0;fontSize=6;rotation=-90;" parent="1" vertex="1">
          <mxGeometry x="319.25" y="125.62" width="20" height="7.25" as="geometry" />
        </mxCell>
        <mxCell id="EXV0WJkCZm_DkFYK4QC3-247" value="PCI" style="text;html=1;strokeColor=none;fillColor=none;align=center;verticalAlign=middle;whiteSpace=wrap;rounded=0;fontSize=6;rotation=-90;" parent="1" vertex="1">
          <mxGeometry x="84" y="126.37" width="20" height="7.25" as="geometry" />
        </mxCell>
        <mxCell id="EXV0WJkCZm_DkFYK4QC3-248" value="" style="rounded=0;whiteSpace=wrap;html=1;" parent="1" vertex="1">
          <mxGeometry x="302.25" y="83.5" width="73" height="13" as="geometry" />
        </mxCell>
        <mxCell id="EXV0WJkCZm_DkFYK4QC3-249" value="" style="ellipse;whiteSpace=wrap;html=1;aspect=fixed;" parent="1" vertex="1">
          <mxGeometry x="305.25" y="85.5" width="3" height="3" as="geometry" />
        </mxCell>
        <mxCell id="EXV0WJkCZm_DkFYK4QC3-250" value="" style="ellipse;whiteSpace=wrap;html=1;aspect=fixed;" parent="1" vertex="1">
          <mxGeometry x="312.25" y="85.5" width="3" height="3" as="geometry" />
        </mxCell>
        <mxCell id="EXV0WJkCZm_DkFYK4QC3-251" value="" style="ellipse;whiteSpace=wrap;html=1;aspect=fixed;" parent="1" vertex="1">
          <mxGeometry x="319.25" y="85.5" width="3" height="3" as="geometry" />
        </mxCell>
        <mxCell id="EXV0WJkCZm_DkFYK4QC3-252" value="" style="ellipse;whiteSpace=wrap;html=1;aspect=fixed;" parent="1" vertex="1">
          <mxGeometry x="326.25" y="85.5" width="3" height="3" as="geometry" />
        </mxCell>
        <mxCell id="EXV0WJkCZm_DkFYK4QC3-253" value="" style="ellipse;whiteSpace=wrap;html=1;aspect=fixed;" parent="1" vertex="1">
          <mxGeometry x="333.25" y="85.5" width="3" height="3" as="geometry" />
        </mxCell>
        <mxCell id="EXV0WJkCZm_DkFYK4QC3-254" value="" style="ellipse;whiteSpace=wrap;html=1;aspect=fixed;" parent="1" vertex="1">
          <mxGeometry x="340.25" y="85.5" width="3" height="3" as="geometry" />
        </mxCell>
        <mxCell id="EXV0WJkCZm_DkFYK4QC3-255" value="" style="ellipse;whiteSpace=wrap;html=1;aspect=fixed;" parent="1" vertex="1">
          <mxGeometry x="347.25" y="85.5" width="3" height="3" as="geometry" />
        </mxCell>
        <mxCell id="EXV0WJkCZm_DkFYK4QC3-256" value="" style="ellipse;whiteSpace=wrap;html=1;aspect=fixed;" parent="1" vertex="1">
          <mxGeometry x="354.25" y="85.5" width="3" height="3" as="geometry" />
        </mxCell>
        <mxCell id="EXV0WJkCZm_DkFYK4QC3-257" value="" style="ellipse;whiteSpace=wrap;html=1;aspect=fixed;" parent="1" vertex="1">
          <mxGeometry x="361.25" y="85.5" width="3" height="3" as="geometry" />
        </mxCell>
        <mxCell id="EXV0WJkCZm_DkFYK4QC3-258" value="" style="ellipse;whiteSpace=wrap;html=1;aspect=fixed;" parent="1" vertex="1">
          <mxGeometry x="368.25" y="85.5" width="3" height="3" as="geometry" />
        </mxCell>
        <mxCell id="EXV0WJkCZm_DkFYK4QC3-259" value="" style="ellipse;whiteSpace=wrap;html=1;aspect=fixed;" parent="1" vertex="1">
          <mxGeometry x="305.25" y="91.5" width="3" height="3" as="geometry" />
        </mxCell>
        <mxCell id="EXV0WJkCZm_DkFYK4QC3-260" value="" style="ellipse;whiteSpace=wrap;html=1;aspect=fixed;" parent="1" vertex="1">
          <mxGeometry x="312.25" y="91.5" width="3" height="3" as="geometry" />
        </mxCell>
        <mxCell id="EXV0WJkCZm_DkFYK4QC3-261" value="" style="ellipse;whiteSpace=wrap;html=1;aspect=fixed;" parent="1" vertex="1">
          <mxGeometry x="319.25" y="91.5" width="3" height="3" as="geometry" />
        </mxCell>
        <mxCell id="EXV0WJkCZm_DkFYK4QC3-262" value="" style="ellipse;whiteSpace=wrap;html=1;aspect=fixed;" parent="1" vertex="1">
          <mxGeometry x="326.25" y="91.5" width="3" height="3" as="geometry" />
        </mxCell>
        <mxCell id="EXV0WJkCZm_DkFYK4QC3-263" value="" style="ellipse;whiteSpace=wrap;html=1;aspect=fixed;" parent="1" vertex="1">
          <mxGeometry x="333.25" y="91.5" width="3" height="3" as="geometry" />
        </mxCell>
        <mxCell id="EXV0WJkCZm_DkFYK4QC3-264" value="" style="ellipse;whiteSpace=wrap;html=1;aspect=fixed;" parent="1" vertex="1">
          <mxGeometry x="340.25" y="91.5" width="3" height="3" as="geometry" />
        </mxCell>
        <mxCell id="EXV0WJkCZm_DkFYK4QC3-265" value="" style="ellipse;whiteSpace=wrap;html=1;aspect=fixed;" parent="1" vertex="1">
          <mxGeometry x="347.25" y="91.5" width="3" height="3" as="geometry" />
        </mxCell>
        <mxCell id="EXV0WJkCZm_DkFYK4QC3-266" value="" style="ellipse;whiteSpace=wrap;html=1;aspect=fixed;" parent="1" vertex="1">
          <mxGeometry x="354.25" y="91.5" width="3" height="3" as="geometry" />
        </mxCell>
        <mxCell id="EXV0WJkCZm_DkFYK4QC3-267" value="" style="ellipse;whiteSpace=wrap;html=1;aspect=fixed;" parent="1" vertex="1">
          <mxGeometry x="361.25" y="91.5" width="3" height="3" as="geometry" />
        </mxCell>
        <mxCell id="EXV0WJkCZm_DkFYK4QC3-268" value="" style="ellipse;whiteSpace=wrap;html=1;aspect=fixed;" parent="1" vertex="1">
          <mxGeometry x="368.25" y="91.5" width="3" height="3" as="geometry" />
        </mxCell>
        <mxCell id="EXV0WJkCZm_DkFYK4QC3-270" value="Raspberry Pi (Model 5)" style="text;html=1;strokeColor=none;fillColor=none;align=center;verticalAlign=middle;whiteSpace=wrap;rounded=0;fontSize=9;" parent="1" vertex="1">
          <mxGeometry x="84" y="296.5" width="100" height="11.5" as="geometry" />
        </mxCell>
        <mxCell id="EXV0WJkCZm_DkFYK4QC3-271" value="Xilinx Zynq XCZU2CG" style="text;html=1;strokeColor=none;fillColor=none;align=center;verticalAlign=middle;whiteSpace=wrap;rounded=0;fontSize=9;" parent="1" vertex="1">
          <mxGeometry x="297.25" y="282.5" width="100" height="11.5" as="geometry" />
        </mxCell>
        <mxCell id="EXV0WJkCZm_DkFYK4QC3-272" value="Raspberry Pi (Model 5)" style="text;html=1;strokeColor=none;fillColor=none;align=center;verticalAlign=middle;whiteSpace=wrap;rounded=0;fontSize=9;" parent="1" vertex="1">
          <mxGeometry x="85" y="80" width="100" height="11.5" as="geometry" />
        </mxCell>
        <mxCell id="EXV0WJkCZm_DkFYK4QC3-273" value="Xilinx Zynq XCZU2CG" style="text;html=1;strokeColor=none;fillColor=none;align=center;verticalAlign=middle;whiteSpace=wrap;rounded=0;fontSize=9;" parent="1" vertex="1">
          <mxGeometry x="298.75" y="66" width="100" height="11.5" as="geometry" />
        </mxCell>
        <mxCell id="EXV0WJkCZm_DkFYK4QC3-276" value="" style="endArrow=classic;startArrow=classic;html=1;rounded=0;entryX=0;entryY=0.5;entryDx=0;entryDy=0;exitX=0;exitY=0.5;exitDx=0;exitDy=0;strokeColor=#ff0000;" parent="1" source="EXV0WJkCZm_DkFYK4QC3-166" target="EXV0WJkCZm_DkFYK4QC3-244" edge="1">
          <mxGeometry width="50" height="50" relative="1" as="geometry">
            <mxPoint x="140" y="270" as="sourcePoint" />
            <mxPoint x="190" y="220" as="targetPoint" />
            <Array as="points">
              <mxPoint x="270" y="363" />
              <mxPoint x="270" y="146" />
            </Array>
          </mxGeometry>
        </mxCell>
        <mxCell id="EXV0WJkCZm_DkFYK4QC3-279" value="" style="sketch=0;aspect=fixed;pointerEvents=1;shadow=0;dashed=0;html=1;strokeColor=none;labelPosition=center;verticalLabelPosition=bottom;verticalAlign=top;align=center;fillColor=#ff0000;shape=mxgraph.mscae.enterprise.lock" parent="1" vertex="1">
          <mxGeometry x="243" y="246.5" width="13.26" height="17" as="geometry" />
        </mxCell>
        <mxCell id="EXV0WJkCZm_DkFYK4QC3-280" value="" style="endArrow=classic;startArrow=classic;html=1;rounded=0;entryX=0.519;entryY=1.153;entryDx=0;entryDy=0;entryPerimeter=0;exitX=0;exitY=0.5;exitDx=0;exitDy=0;fillColor=#ffe6cc;strokeColor=#8F6700;" parent="1" source="EXV0WJkCZm_DkFYK4QC3-116" target="EXV0WJkCZm_DkFYK4QC3-120" edge="1">
          <mxGeometry width="50" height="50" relative="1" as="geometry">
            <mxPoint x="370" y="420" as="sourcePoint" />
            <mxPoint x="4" y="373.4999999999999" as="targetPoint" />
            <Array as="points">
              <mxPoint x="320" y="440" />
              <mxPoint x="50" y="440" />
              <mxPoint x="50" y="348" />
            </Array>
          </mxGeometry>
        </mxCell>
        <mxCell id="EXV0WJkCZm_DkFYK4QC3-281" value="" style="endArrow=classic;startArrow=classic;html=1;rounded=0;entryX=0.5;entryY=1;entryDx=0;entryDy=0;exitX=0;exitY=0.5;exitDx=0;exitDy=0;fillColor=#dae8fc;strokeColor=#475D7D;" parent="1" source="EXV0WJkCZm_DkFYK4QC3-194" target="EXV0WJkCZm_DkFYK4QC3-198" edge="1">
          <mxGeometry width="50" height="50" relative="1" as="geometry">
            <mxPoint x="320.25" y="139" as="sourcePoint" />
            <mxPoint x="84.25" y="131" as="targetPoint" />
            <Array as="points">
              <mxPoint x="320" y="220" />
              <mxPoint x="50" y="220" />
              <mxPoint x="50" y="130" />
            </Array>
          </mxGeometry>
        </mxCell>
        <mxCell id="EXV0WJkCZm_DkFYK4QC3-283" value="" style="sketch=0;aspect=fixed;pointerEvents=1;shadow=0;dashed=0;html=1;strokeColor=none;labelPosition=center;verticalLabelPosition=bottom;verticalAlign=top;align=center;fillColor=#475D7D;shape=mxgraph.mscae.enterprise.lock_unlocked" parent="1" vertex="1">
          <mxGeometry x="147.96" y="190" width="12.58" height="17" as="geometry" />
        </mxCell>
        <mxCell id="EXV0WJkCZm_DkFYK4QC3-277" value="MACsec encryped communication" style="text;html=1;strokeColor=none;fillColor=none;align=center;verticalAlign=middle;whiteSpace=wrap;rounded=0;rotation=-90;fontSize=9;fontColor=#ff0000;" parent="1" vertex="1">
          <mxGeometry x="218.5" y="246.5" width="100.75" height="30" as="geometry" />
        </mxCell>
        <mxCell id="EXV0WJkCZm_DkFYK4QC3-285" value="unencryped PCI communication" style="text;html=1;strokeColor=none;fillColor=none;align=center;verticalAlign=middle;whiteSpace=wrap;rounded=0;rotation=0;fontSize=9;fontColor=#475D7D;" parent="1" vertex="1">
          <mxGeometry x="92.21" y="207" width="124.08" height="24" as="geometry" />
        </mxCell>
        <mxCell id="EXV0WJkCZm_DkFYK4QC3-286" value="" style="sketch=0;aspect=fixed;pointerEvents=1;shadow=0;dashed=0;html=1;strokeColor=none;labelPosition=center;verticalLabelPosition=bottom;verticalAlign=top;align=center;fillColor=#8F6700;shape=mxgraph.mscae.enterprise.lock_unlocked" parent="1" vertex="1">
          <mxGeometry x="148.71" y="410" width="12.58" height="17" as="geometry" />
        </mxCell>
        <mxCell id="EXV0WJkCZm_DkFYK4QC3-287" value="unencryped PCI communication" style="text;html=1;strokeColor=none;fillColor=none;align=center;verticalAlign=middle;whiteSpace=wrap;rounded=0;rotation=0;fontSize=9;fontColor=#8F6700;" parent="1" vertex="1">
          <mxGeometry x="94" y="427" width="124.08" height="24" as="geometry" />
        </mxCell>
      </root>
    </mxGraphModel>
  </diagram>
</mxfile>
